<?xml version="1.0" encoding="utf-8"?>
<!-- Generator: Adobe Illustrator 16.0.0, SVG Export Plug-In . SVG Version: 6.00 Build 0)  -->
<!DOCTYPE svg PUBLIC "-//W3C//DTD SVG 1.1//EN" "http://www.w3.org/Graphics/SVG/1.1/DTD/svg11.dtd" [
	<!ENTITY ns_flows "http://ns.adobe.com/Flows/1.0/">
	<!ENTITY ns_extend "http://ns.adobe.com/Extensibility/1.0/">
	<!ENTITY ns_ai "http://ns.adobe.com/AdobeIllustrator/10.0/">
	<!ENTITY ns_graphs "http://ns.adobe.com/Graphs/1.0/">
]>
<svg version="1.1" id="Layer_1" xmlns:x="&ns_extend;" xmlns:i="&ns_ai;" xmlns:graph="&ns_graphs;"
	 xmlns="http://www.w3.org/2000/svg" xmlns:xlink="http://www.w3.org/1999/xlink" xmlns:a="http://ns.adobe.com/AdobeSVGViewerExtensions/3.0/"
	 x="0px" y="0px" width="130px" height="35px" viewBox="0 0 130 35" enable-background="new 0 0 130 35" xml:space="preserve">
<g>
	<path fill="#3969B3" d="M1.932,6.376h2.814v14.129h4.392v4.616H1.932V6.376z"/>
	<path fill="#3969B3" d="M10.43,6.376h2.814v7.084l2.948-7.084h3.743l-3.324,7.075l3.473,11.67h-3.465l-1.92-7.709l-1.454,3.135
		v4.574H10.43V6.376z"/>
	<path fill="#3969B3" d="M21.127,6.376h2.821v18.745h-2.821V6.376z"/>
	<path fill="#3969B3" d="M25.936,6.376h3.701l1.427,11.405l1.417-11.405h3.699v18.745h-2.305V10.825L32.1,25.121h-2.086
		l-1.772-14.296v14.296h-2.305V6.376z"/>
	<path fill="#3969B3" d="M42.33,6.376h2.821v18.745H42.33V6.376z"/>
	<path fill="#3969B3" d="M52.769,22.026h-3.195l-0.444,3.095h-2.874l3.423-18.745h3.07l3.422,18.745h-2.947L52.769,22.026z
		 M52.185,17.974l-1.005-6.739l-0.995,6.739H52.185z"/>
	<path fill="#3969B3" d="M57.178,6.376h2.821v18.745h-2.821V6.376z"/>
	<path fill="#3969B3" d="M71.859,22.026h-3.195l-0.443,3.095h-2.874L68.77,6.376h3.07l3.422,18.745h-2.947L71.859,22.026z
		 M71.275,17.974l-1.006-6.739l-0.994,6.739H71.275z"/>
	<path fill="#3969B3" d="M75.541,21.349l2.51-0.485c0.104,0.614,0.249,1.053,0.436,1.316c0.187,0.265,0.435,0.396,0.745,0.396
		c0.34,0,0.603-0.148,0.789-0.446c0.145-0.222,0.218-0.498,0.218-0.83c0-0.374-0.096-0.664-0.286-0.868
		c-0.137-0.145-0.499-0.323-1.087-0.536c-0.878-0.314-1.488-0.606-1.83-0.875c-0.342-0.268-0.629-0.722-0.863-1.36
		s-0.351-1.367-0.351-2.185c0-0.895,0.126-1.665,0.379-2.313c0.252-0.646,0.601-1.13,1.043-1.449
		c0.443-0.319,1.038-0.479,1.783-0.479c0.787,0,1.368,0.124,1.743,0.371c0.374,0.247,0.687,0.631,0.938,1.151
		c0.251,0.52,0.459,1.223,0.624,2.109l-2.397,0.486c-0.063-0.436-0.166-0.755-0.311-0.959c-0.199-0.273-0.439-0.409-0.721-0.409
		c-0.286,0-0.494,0.104-0.624,0.313c-0.131,0.209-0.196,0.462-0.196,0.76c0,0.332,0.083,0.583,0.249,0.753
		c0.165,0.17,0.525,0.323,1.081,0.46c0.84,0.195,1.466,0.468,1.876,0.817s0.724,0.848,0.94,1.494
		c0.218,0.647,0.326,1.358,0.326,2.134c0,0.783-0.114,1.545-0.345,2.286c-0.229,0.741-0.592,1.331-1.087,1.77
		s-1.169,0.657-2.021,0.657c-1.206,0-2.064-0.354-2.575-1.062C76.015,23.659,75.687,22.653,75.541,21.349z"/>
	<path fill="#3969B3" d="M86.065,15.94l-2.417-0.524c0.091-0.869,0.223-1.554,0.395-2.053c0.172-0.498,0.419-0.931,0.742-1.298
		c0.232-0.264,0.551-0.468,0.957-0.613c0.405-0.145,0.845-0.218,1.316-0.218c0.758,0,1.367,0.088,1.827,0.263
		c0.459,0.175,0.843,0.539,1.148,1.093c0.216,0.384,0.386,0.928,0.51,1.631s0.187,1.374,0.187,2.014v5.997
		c0,0.639,0.02,1.14,0.059,1.502c0.04,0.362,0.126,0.825,0.258,1.388h-2.373c-0.095-0.35-0.157-0.616-0.187-0.799
		c-0.028-0.184-0.058-0.472-0.087-0.863c-0.331,0.656-0.66,1.125-0.987,1.406c-0.447,0.375-0.967,0.563-1.56,0.563
		c-0.787,0-1.384-0.375-1.792-1.125s-0.612-1.675-0.612-2.774c0-1.031,0.147-1.88,0.441-2.545s0.837-1.159,1.628-1.483
		c0.948-0.392,1.563-0.667,1.845-0.824c0.281-0.158,0.58-0.364,0.895-0.62c0-0.64-0.064-1.087-0.192-1.343
		c-0.129-0.256-0.354-0.384-0.677-0.384c-0.415,0-0.726,0.137-0.933,0.409C86.295,14.951,86.164,15.353,86.065,15.94z
		 M88.258,18.677c-0.348,0.256-0.71,0.481-1.087,0.678c-0.514,0.281-0.839,0.559-0.976,0.831c-0.141,0.281-0.211,0.601-0.211,0.959
		c0,0.409,0.069,0.743,0.208,1.004c0.139,0.26,0.343,0.39,0.612,0.39c0.281,0,0.543-0.141,0.785-0.422s0.414-0.625,0.516-1.029
		s0.152-0.931,0.152-1.579V18.677z"/>
	<path fill="#3969B3" d="M99.192,6.376v18.745h-2.367v-2.008c-0.332,0.853-0.634,1.428-0.907,1.727
		c-0.364,0.392-0.771,0.588-1.218,0.588c-0.898,0-1.585-0.703-2.06-2.109c-0.474-1.407-0.711-3.115-0.711-5.128
		c0-2.25,0.262-3.972,0.786-5.165c0.523-1.194,1.189-1.791,1.997-1.791c0.394,0,0.751,0.137,1.071,0.409
		c0.321,0.273,0.606,0.683,0.854,1.228V6.376H99.192z M96.657,18.293c0-1.065-0.109-1.86-0.329-2.385s-0.497-0.786-0.833-0.786
		c-0.294,0-0.54,0.251-0.739,0.754c-0.198,0.504-0.298,1.348-0.298,2.532c0,1.108,0.103,1.92,0.308,2.436
		c0.205,0.517,0.459,0.774,0.761,0.774c0.323,0,0.593-0.261,0.808-0.78C96.55,20.317,96.657,19.47,96.657,18.293z"/>
	<path fill="#3969B3" d="M100.825,6.376h2.528v3.542h-2.528V6.376z M100.825,11.542h2.528v13.579h-2.528V11.542z"/>
	<path fill="#3969B3" d="M104.242,11.542h2.668l1.361,9.04l1.264-9.04h2.491l-2.617,14.509c-0.299,1.655-0.603,2.772-0.913,3.353
		c-0.438,0.819-1.107,1.229-2.006,1.229c-0.364,0-0.928-0.102-1.689-0.307l-0.198-3.631c0.364,0.238,0.77,0.357,1.217,0.357
		c0.298,0,0.539-0.141,0.723-0.422c0.185-0.282,0.341-0.786,0.469-1.511L104.242,11.542z"/>
	<path fill="#3969B3" d="M114.828,15.94l-2.417-0.524c0.091-0.869,0.223-1.554,0.395-2.053c0.172-0.498,0.419-0.931,0.742-1.298
		c0.232-0.264,0.551-0.468,0.957-0.613c0.405-0.145,0.845-0.218,1.316-0.218c0.758,0,1.367,0.088,1.827,0.263
		c0.459,0.175,0.843,0.539,1.148,1.093c0.216,0.384,0.386,0.928,0.51,1.631s0.187,1.374,0.187,2.014v5.997
		c0,0.639,0.02,1.14,0.059,1.502c0.04,0.362,0.126,0.825,0.258,1.388h-2.373c-0.095-0.35-0.157-0.616-0.187-0.799
		c-0.028-0.184-0.058-0.472-0.087-0.863c-0.331,0.656-0.66,1.125-0.987,1.406c-0.447,0.375-0.967,0.563-1.56,0.563
		c-0.787,0-1.384-0.375-1.792-1.125s-0.612-1.675-0.612-2.774c0-1.031,0.147-1.88,0.441-2.545s0.837-1.159,1.628-1.483
		c0.948-0.392,1.563-0.667,1.845-0.824c0.281-0.158,0.58-0.364,0.895-0.62c0-0.64-0.064-1.087-0.192-1.343
		c-0.129-0.256-0.354-0.384-0.677-0.384c-0.415,0-0.726,0.137-0.933,0.409C115.058,14.951,114.927,15.353,114.828,15.94z
		 M117.021,18.677c-0.348,0.256-0.71,0.481-1.087,0.678c-0.514,0.281-0.839,0.559-0.976,0.831c-0.141,0.281-0.211,0.601-0.211,0.959
		c0,0.409,0.069,0.743,0.208,1.004c0.139,0.26,0.343,0.39,0.612,0.39c0.281,0,0.543-0.141,0.785-0.422s0.414-0.625,0.516-1.029
		s0.152-0.931,0.152-1.579V18.677z"/>
	<path fill="#3969B3" d="M121.009,6.376h2.529v6.904c0.344-0.732,0.685-1.257,1.024-1.572s0.741-0.474,1.205-0.474
		c0.688,0,1.229,0.431,1.625,1.292s0.593,2.183,0.593,3.964v8.631h-2.541v-7.468c0-0.852-0.076-1.455-0.229-1.809
		s-0.368-0.531-0.646-0.531c-0.307,0-0.556,0.239-0.746,0.717s-0.285,1.334-0.285,2.569v6.521h-2.529V6.376z"/>
</g>
<g>
</g>
<g>
</g>
<g>
</g>
<g>
</g>
<g>
</g>
<g>
</g>
</svg>
