<?xml version="1.0" encoding="utf-8"?>
<!-- Generator: Adobe Illustrator 16.0.0, SVG Export Plug-In . SVG Version: 6.00 Build 0)  -->
<!DOCTYPE svg PUBLIC "-//W3C//DTD SVG 1.1//EN" "http://www.w3.org/Graphics/SVG/1.1/DTD/svg11.dtd" [
	<!ENTITY ns_flows "http://ns.adobe.com/Flows/1.0/">
	<!ENTITY ns_extend "http://ns.adobe.com/Extensibility/1.0/">
	<!ENTITY ns_ai "http://ns.adobe.com/AdobeIllustrator/10.0/">
	<!ENTITY ns_graphs "http://ns.adobe.com/Graphs/1.0/">
]>
<svg version="1.1" id="Layer_1" xmlns:x="&ns_extend;" xmlns:i="&ns_ai;" xmlns:graph="&ns_graphs;"
	 xmlns="http://www.w3.org/2000/svg" xmlns:xlink="http://www.w3.org/1999/xlink" xmlns:a="http://ns.adobe.com/AdobeSVGViewerExtensions/3.0/"
	 x="0px" y="0px" width="130px" height="35px" viewBox="0 0 130 35" enable-background="new 0 0 130 35" xml:space="preserve">
<g>
	<path fill="#3FACE1" d="M3.718,22.066V10.971h2.019v9.021h3.699l-0.209,2.074H3.718z"/>
	<path fill="#3FACE1" d="M12.765,22.066h-2.019V10.971h2.019V22.066z M12.826,16.142l2.333-5.171h2.117l-2.413,4.979l2.646,6.116
		h-2.339L12.826,16.142z"/>
	<path fill="#3FACE1" d="M23.928,10.971v1.921h-1.76v7.245h1.76v1.93H18.39v-1.93h1.76v-7.245h-1.76v-1.921H23.928z"/>
	<path fill="#3FACE1" d="M31.603,10.971l0.48,11.095h-1.76l-0.104-4.748c-0.008-0.443-0.012-0.837-0.009-1.185
		c0.002-0.347,0.007-0.674,0.015-0.98c0.008-0.307,0.021-0.617,0.04-0.929s0.038-0.652,0.059-1.021l-0.96,6.971h-1.526l-1.034-6.971
		c0.025,0.352,0.046,0.684,0.065,0.997c0.019,0.312,0.032,0.625,0.04,0.94c0.008,0.315,0.014,0.652,0.018,1.013
		c0.004,0.36,0.002,0.762-0.006,1.205l-0.062,4.708h-1.729l0.48-11.095h2.074l0.948,7.171l0.898-7.171H31.603z"/>
	<path fill="#3FACE1" d="M46.268,10.971v1.921h-1.76v7.245h1.76v1.93h-5.539v-1.93h1.76v-7.245h-1.76v-1.921H46.268z"/>
	<path fill="#3FACE1" d="M52.176,19.672h-2.499l-0.449,2.395h-2.111l2.609-11.095h2.449l2.609,11.095h-2.16L52.176,19.672z
		 M49.997,17.767h1.847L50.92,12.86L49.997,17.767z"/>
	<path fill="#3FACE1" d="M61.161,10.971v1.921h-1.76v7.245h1.76v1.93h-5.539v-1.93h1.76v-7.245h-1.76v-1.921H61.161z"/>
	<path fill="#3FACE1" d="M74.516,19.672h-2.499l-0.449,2.395h-2.111l2.609-11.095h2.45l2.609,11.095h-2.16L74.516,19.672z
		 M72.337,17.767h1.846L73.26,12.86L72.337,17.767z"/>
	<path fill="#3FACE1" d="M80.522,20.529c0.324,0,0.586-0.066,0.784-0.201c0.199-0.133,0.299-0.332,0.299-0.6
		c0-0.182-0.039-0.334-0.117-0.457c-0.078-0.121-0.228-0.24-0.449-0.352s-0.55-0.246-0.984-0.4c-0.398-0.139-0.75-0.314-1.056-0.528
		c-0.306-0.213-0.544-0.488-0.714-0.824c-0.17-0.336-0.255-0.755-0.255-1.257c0-0.507,0.108-0.958,0.326-1.353
		c0.217-0.395,0.537-0.706,0.96-0.933c0.422-0.227,0.939-0.34,1.551-0.34c0.582,0,1.09,0.097,1.523,0.292
		c0.433,0.195,0.807,0.442,1.123,0.741l-0.775,1.489c-0.271-0.219-0.563-0.394-0.874-0.524c-0.313-0.131-0.626-0.196-0.941-0.196
		c-0.316,0-0.551,0.055-0.705,0.164c-0.154,0.11-0.23,0.274-0.23,0.493c0,0.144,0.04,0.268,0.12,0.372
		c0.079,0.104,0.23,0.211,0.452,0.32s0.545,0.244,0.972,0.404c0.423,0.155,0.791,0.333,1.105,0.536
		c0.313,0.203,0.557,0.474,0.729,0.813c0.173,0.34,0.259,0.785,0.259,1.342c0,0.619-0.142,1.137-0.425,1.557
		c-0.283,0.418-0.658,0.732-1.126,0.939c-0.468,0.209-0.98,0.313-1.538,0.313c-0.633,0-1.19-0.117-1.675-0.352
		c-0.483-0.234-0.896-0.545-1.236-0.93l0.979-1.424c0.254,0.256,0.542,0.469,0.864,0.641C79.789,20.443,80.141,20.529,80.522,20.529
		z"/>
	<path fill="#3FACE1" d="M90.849,19.617c0,0.32,0.034,0.551,0.102,0.695c0.068,0.145,0.178,0.254,0.329,0.328l-0.399,1.666
		c-0.386-0.049-0.711-0.16-0.976-0.332c-0.265-0.174-0.473-0.438-0.625-0.789c-0.25,0.389-0.57,0.68-0.96,0.869
		s-0.788,0.283-1.193,0.283c-0.674,0-1.21-0.25-1.609-0.748c-0.4-0.5-0.601-1.141-0.601-1.926c0-0.922,0.278-1.635,0.834-2.137
		s1.339-0.752,2.348-0.752h0.88v-0.32c0-0.443-0.109-0.771-0.329-0.985c-0.22-0.213-0.54-0.32-0.963-0.32
		c-0.209,0-0.478,0.039-0.807,0.116c-0.328,0.078-0.656,0.188-0.984,0.333l-0.449-1.681c0.423-0.208,0.862-0.366,1.32-0.472
		c0.457-0.107,0.866-0.16,1.228-0.16c0.973,0,1.691,0.257,2.157,0.772s0.698,1.258,0.698,2.229V19.617z M87.796,20.529
		c0.21,0,0.429-0.082,0.659-0.244c0.229-0.162,0.404-0.395,0.522-0.693v-1.377h-0.479c-0.542,0-0.939,0.109-1.194,0.324
		c-0.254,0.217-0.381,0.533-0.381,0.949c0,0.326,0.076,0.58,0.23,0.764C87.307,20.438,87.521,20.529,87.796,20.529z"/>
	<path fill="#3FACE1" d="M96.511,9.922l1.944,0.264v11.88h-1.723l-0.099-0.938c-0.181,0.332-0.421,0.615-0.721,0.854
		c-0.299,0.236-0.662,0.355-1.089,0.355c-0.542,0-0.99-0.189-1.345-0.568c-0.355-0.379-0.619-0.908-0.794-1.588
		c-0.175-0.682-0.262-1.479-0.262-2.39c0-0.875,0.104-1.652,0.314-2.33c0.209-0.678,0.508-1.21,0.898-1.597
		c0.39-0.387,0.853-0.58,1.391-0.58c0.291,0,0.562,0.066,0.813,0.2c0.25,0.133,0.474,0.328,0.671,0.584V9.922z M95.551,15.134
		c-0.337,0-0.607,0.207-0.813,0.62s-0.308,1.098-0.308,2.053c0,0.699,0.043,1.242,0.129,1.628c0.086,0.389,0.205,0.658,0.356,0.813
		c0.152,0.156,0.326,0.232,0.523,0.232c0.218,0,0.415-0.088,0.594-0.264s0.338-0.416,0.478-0.721V15.83
		c-0.136-0.219-0.279-0.39-0.431-0.512C95.928,15.195,95.751,15.134,95.551,15.134z"/>
	<path fill="#3FACE1" d="M104.233,13.564v6.771h1.662v1.73h-5.459v-1.73h1.853v-5.042h-1.791v-1.729H104.233z M103.059,9.114
		c0.336,0,0.611,0.136,0.824,0.408c0.213,0.272,0.32,0.611,0.32,1.017c0,0.405-0.107,0.746-0.32,1.021s-0.488,0.412-0.824,0.412
		c-0.341,0-0.619-0.137-0.834-0.412c-0.216-0.275-0.323-0.615-0.323-1.021c0-0.406,0.107-0.745,0.323-1.017
		C102.439,9.25,102.718,9.114,103.059,9.114z"/>
	<path fill="#3FACE1" d="M113.865,13.564l-2.178,8.502c-0.193,0.752-0.449,1.383-0.767,1.893c-0.318,0.51-0.714,0.902-1.188,1.182
		c-0.475,0.277-1.044,0.439-1.708,0.488l-0.222-1.785c0.431-0.07,0.778-0.174,1.043-0.313s0.479-0.328,0.641-0.564
		c0.162-0.238,0.302-0.537,0.421-0.9h-0.664l-2.074-8.502h2.056l1.268,6.885l1.379-6.885H113.865z"/>
	<path fill="#3FACE1" d="M120.635,19.617c0,0.32,0.034,0.551,0.102,0.695c0.068,0.145,0.178,0.254,0.329,0.328l-0.399,1.666
		c-0.386-0.049-0.711-0.16-0.976-0.332c-0.265-0.174-0.473-0.438-0.625-0.789c-0.25,0.389-0.57,0.68-0.96,0.869
		s-0.788,0.283-1.193,0.283c-0.674,0-1.21-0.25-1.609-0.748c-0.4-0.5-0.601-1.141-0.601-1.926c0-0.922,0.278-1.635,0.834-2.137
		s1.339-0.752,2.348-0.752h0.88v-0.32c0-0.443-0.109-0.771-0.329-0.985c-0.22-0.213-0.54-0.32-0.963-0.32
		c-0.209,0-0.478,0.039-0.807,0.116c-0.328,0.078-0.656,0.188-0.984,0.333l-0.449-1.681c0.423-0.208,0.862-0.366,1.32-0.472
		c0.457-0.107,0.866-0.16,1.228-0.16c0.973,0,1.691,0.257,2.157,0.772s0.698,1.258,0.698,2.229V19.617z M117.582,20.529
		c0.21,0,0.429-0.082,0.659-0.244c0.229-0.162,0.404-0.395,0.522-0.693v-1.377h-0.479c-0.542,0-0.939,0.109-1.194,0.324
		c-0.254,0.217-0.381,0.533-0.381,0.949c0,0.326,0.076,0.58,0.23,0.764C117.093,20.438,117.308,20.529,117.582,20.529z"/>
	<path fill="#3FACE1" d="M124.524,9.938v4.467c0.274-0.379,0.573-0.661,0.896-0.845c0.321-0.184,0.663-0.276,1.024-0.276
		c0.582,0,1.027,0.221,1.335,0.664c0.309,0.443,0.462,1.067,0.462,1.874v6.244h-1.944v-5.54c0-0.512-0.045-0.87-0.133-1.073
		c-0.088-0.203-0.253-0.304-0.495-0.304c-0.136,0-0.268,0.041-0.397,0.124c-0.129,0.083-0.255,0.201-0.378,0.356
		s-0.246,0.339-0.369,0.552v5.884h-1.945v-11.88L124.524,9.938z"/>
</g>
<g>
</g>
<g>
</g>
<g>
</g>
<g>
</g>
<g>
</g>
<g>
</g>
</svg>
